<svg height="200px" width="200px" version="1.1" id="Layer_1" xmlns="http://www.w3.org/2000/svg" xmlns:xlink="http://www.w3.org/1999/xlink" viewBox="0 0 511.667 511.667" xml:space="preserve" fill="#000000"><g id="SVGRepo_bgCarrier" stroke-width="0"></g><g id="SVGRepo_tracerCarrier" stroke-linecap="round" stroke-linejoin="round"></g><g id="SVGRepo_iconCarrier"> <path style="fill:#A85D5D;" d="M307.926,306.692c-13.117-21.236,19.628-275.588,19.628-275.588S273.058,0,184.427,0 S61.755,31.104,61.755,31.104s20.44,366.312,39.287,480.052l124.28,0.187v-21.19c0,0,83.338,26.452,169.157,20.69 c80.479-5.388,116.956,5.996,117.097-61.023C511.686,392.81,367.918,403.803,307.926,306.692z"></path> <path style="fill:#8C4C4C;" d="M184.427,21.314c77.606,0,129.042,23.844,140.629,29.777c1.53-12.508,2.498-19.987,2.498-19.987 S273.058,0,184.427,0S61.755,31.104,61.755,31.104s0.406,7.371,1.171,20.331C69.563,46.172,105.165,21.314,184.427,21.314z"></path> <path style="fill:#FFCE54;" d="M307.926,306.692c-0.656-1.062-1.202-2.732-1.64-4.902c-25.796,14.553-132.681,71.97-214.128,71.892 l3.888,40.255c100.014,0,208.21-64.256,233.272-80.042C321.448,325.884,314.219,316.89,307.926,306.692z"></path> <path style="fill:#434A54;" d="M511.03,462.39c-176.356,27.405-269.75-8.307-307.288-12.46 c-26.811-2.967-82.729-4.513-110.867-1.608c2.717,24.937,5.45,46.501,8.167,62.835l124.28,0.187v-21.191 c0,0,83.338,26.452,169.157,20.69C469.494,505.831,506.283,515.372,511.03,462.39z"></path> <path style="fill:#FFCE54;" d="M170.592,404.911c-11.758,0-21.314-9.557-21.314-21.314c0-11.742,9.556-21.299,21.314-21.299 c11.743,0,21.314,9.557,21.314,21.299C191.906,395.354,182.334,404.911,170.592,404.911z"></path> <g> <path style="fill:#F6BB42;" d="M170.592,351.633c-17.661,0-31.964,14.319-31.964,31.964c0,17.661,14.303,31.979,31.964,31.979 c17.645,0,31.964-14.318,31.964-31.979C202.556,365.952,188.237,351.633,170.592,351.633z M170.592,394.262 c-5.871,0-10.665-4.778-10.665-10.665c0-5.871,4.794-10.649,10.665-10.649s10.649,4.778,10.649,10.649 C181.241,389.483,176.463,394.262,170.592,394.262z"></path> <path style="fill:#F6BB42;" d="M96.093,404.911c5.887,0,10.665-4.763,10.665-10.649s-4.778-10.665-10.665-10.665 c-0.453,0-0.906,0.047-1.358,0.109c-0.078-0.328-0.172-0.641-0.266-0.952c0.421-0.188,0.843-0.375,1.233-0.609 c5.106-2.936,6.855-9.447,3.904-14.553c-2.936-5.091-9.462-6.84-14.553-3.904c-0.39,0.234-0.765,0.5-1.124,0.766 c-0.234-0.234-0.469-0.469-0.703-0.703c0.281-0.359,0.531-0.718,0.765-1.124c2.936-5.091,1.187-11.602-3.904-14.553 c-5.091-2.937-11.618-1.203-14.553,3.903c-0.234,0.39-0.422,0.796-0.593,1.202c-0.312-0.094-0.625-0.188-0.953-0.266 c0.062-0.438,0.094-0.874,0.094-1.327c0-5.887-4.778-10.649-10.649-10.649c-5.887,0-10.665,4.763-10.665,10.649 c0,0.453,0.031,0.89,0.094,1.327c-0.328,0.078-0.641,0.172-0.953,0.266c-0.172-0.406-0.359-0.812-0.593-1.202 c-2.936-5.091-9.463-6.84-14.553-3.903c-5.091,2.951-6.839,9.462-3.904,14.553c0.234,0.406,0.484,0.765,0.765,1.124 c-0.234,0.234-0.469,0.469-0.703,0.703c-0.359-0.266-0.718-0.531-1.125-0.766c-5.09-2.936-11.618-1.187-14.553,3.904 c-2.951,5.105-1.202,11.617,3.904,14.553c0.391,0.234,0.812,0.422,1.234,0.609c-0.094,0.312-0.188,0.624-0.266,0.952 c-0.453-0.062-0.906-0.109-1.358-0.109c-5.887,0-10.665,4.778-10.665,10.665s4.778,10.649,10.665,10.649 c0.468,0,0.921-0.031,1.374-0.094c0.078,0.312,0.172,0.625,0.265,0.938c-0.421,0.171-0.843,0.374-1.249,0.608 c-5.106,2.951-6.855,9.463-3.904,14.554c2.936,5.105,9.463,6.854,14.553,3.903c0.422-0.234,0.812-0.516,1.171-0.796 c0.234,0.233,0.468,0.452,0.703,0.687c-0.297,0.375-0.562,0.75-0.812,1.171c-2.936,5.106-1.187,11.618,3.904,14.554 c5.09,2.951,11.617,1.202,14.553-3.889c0.25-0.421,0.437-0.858,0.625-1.296c0.312,0.094,0.625,0.188,0.937,0.266 c-0.062,0.469-0.109,0.937-0.109,1.421c0,5.871,4.778,10.649,10.665,10.649c5.871,0,10.649-4.778,10.649-10.649 c0-0.484-0.047-0.952-0.109-1.421c0.312-0.078,0.625-0.172,0.937-0.266c0.187,0.438,0.375,0.875,0.625,1.296 c2.936,5.091,9.462,6.84,14.553,3.889c5.106-2.936,6.839-9.447,3.904-14.554c-0.25-0.421-0.516-0.796-0.812-1.171 c0.234-0.234,0.468-0.453,0.703-0.687c0.359,0.28,0.75,0.562,1.171,0.796c5.091,2.951,11.618,1.202,14.553-3.903 c2.951-5.091,1.203-11.603-3.904-14.554c-0.406-0.234-0.828-0.438-1.249-0.608c0.094-0.312,0.188-0.625,0.266-0.938 C95.171,404.88,95.624,404.911,96.093,404.911z"></path> </g> <path style="fill:#FFCE54;" d="M44.204,388.937c2.936-5.106,9.447-6.855,14.553-3.904c5.09,2.936,6.839,9.463,3.888,14.554 c-2.936,5.09-9.447,6.839-14.553,3.903C43.001,400.539,41.253,394.027,44.204,388.937z"></path> <g style="opacity:0.2;"> <path style="fill:#FFFFFF;" d="M307.926,306.692c-13.117-21.236,19.628-275.588,19.628-275.588S273.058,0,184.427,0 c-3.623,0-7.152,0.062-10.603,0.156c82.291,2.342,132.415,30.949,132.415,30.949s-32.745,254.352-19.628,275.588 c59.992,97.11,203.76,86.117,203.65,143.128c-0.125,67.02-36.617,55.636-117.097,61.023c-4.888,0.327-9.774,0.546-14.631,0.687 c11.789,0.297,23.844,0.125,35.945-0.687c80.479-5.388,116.956,5.996,117.097-61.023 C511.686,392.81,367.918,403.803,307.926,306.692z"></path> </g> </g></svg>